<?xml version="1.0" encoding="utf-8"?>
<!-- Generator: Adobe Illustrator 18.1.1, SVG Export Plug-In . SVG Version: 6.00 Build 0)  -->
<svg version="1.1" id="Layer_1" xmlns="http://www.w3.org/2000/svg" xmlns:xlink="http://www.w3.org/1999/xlink" x="0px" y="0px"
	 viewBox="710 290 500 500" enable-background="new 710 290 500 500" xml:space="preserve">
<g>
	<path fill="#FFFFFF" d="M1045.9,481.7c-7.2,0-13-5.8-13-13s5.8-13,13-13s13,5.8,13,13S1053.1,481.7,1045.9,481.7z M1045.9,461.7
		c-3.9,0-7,3.1-7,7s3.1,7,7,7s7-3.1,7-7S1049.8,461.7,1045.9,461.7z"/>
</g>
<g>
	<path fill="#FFFFFF" d="M849.4,678.2c-7.2,0-13-5.8-13-13s5.8-13,13-13s13,5.8,13,13S856.5,678.2,849.4,678.2z M849.4,658.2
		c-3.9,0-7,3.1-7,7s3.1,7,7,7s7-3.1,7-7S853.2,658.2,849.4,658.2z"/>
</g>
<g>
	<path fill="#FFFFFF" d="M964.8,593.7c-23.7,0-43-19.3-43-43s19.3-43,43-43s43,19.3,43,43S988.5,593.7,964.8,593.7z M964.8,513.7
		c-20.4,0-37,16.6-37,37s16.6,37,37,37s37-16.6,37-37S985.2,513.7,964.8,513.7z"/>
</g>
<g>
	<path fill="#FFFFFF" d="M964.8,668.7c-65.1,0-118-52.9-118-118s52.9-118,118-118c27.3,0,54,9.6,75,26.9l-3.8,4.6
		c-20-16.5-45.3-25.5-71.2-25.5c-61.8,0-112,50.2-112,112s50.2,112,112,112s112-50.2,112-112c0-26.6-9.5-52.3-26.6-72.5l4.6-3.9
		c18.1,21.3,28.1,48.4,28.1,76.4C1082.8,615.7,1029.9,668.7,964.8,668.7z"/>
</g>
<g>
	<rect x="961.8" y="438.2" fill="#FFFFFF" width="6" height="75"/>
</g>
<g>
	<path fill="#FFFFFF" d="M1045.9,632.6"/>
</g>
<g>
	
		<rect x="986.5" y="587.6" transform="matrix(-0.7071 -0.7071 0.7071 -0.7071 1296.1986 1718.0062)" fill="#FFFFFF" width="34.8" height="6"/>
</g>
<g>
	
		<rect x="870.2" y="491.7" transform="matrix(-0.7071 -0.7071 0.7071 -0.7071 1200.1213 1486.4708)" fill="#FFFFFF" width="75.5" height="6"/>
</g>
<g>
	
		<rect x="893.3" y="561.9" transform="matrix(-0.7071 -0.7071 0.7071 -0.7071 1092.9948 1689.2039)" fill="#FFFFFF" width="6" height="112.7"/>
</g>
<g>
	
		<rect x="1011.7" y="467.1" transform="matrix(-0.7071 -0.7071 0.7071 -0.7071 1378.7493 1570.8237)" fill="#FFFFFF" width="6" height="65.6"/>
</g>
<g>
	<g>
		<path fill="#FFFFFF" d="M955.6,564.7l-4.2-4.3c8.5-8.5,21.5-21.4,22.5-22.4l4.6,3.8C977.7,542.8,962.2,558.1,955.6,564.7z"/>
	</g>
	<g>
		<path fill="#FFFFFF" d="M974.3,564.9c-1-0.8-16.3-16.3-22.9-22.9l4.3-4.2c8.5,8.5,21.4,21.5,22.4,22.5L974.3,564.9z"/>
	</g>
</g>
<g>
	<path fill="#FFFFFF" d="M964.8,628.7c-20.8,0-40.4-8.1-55.2-22.8l4.2-4.2c13.6,13.6,31.7,21.1,50.9,21.1c39.7,0,72-32.3,72-72
		s-32.3-72-72-72v-6c43,0,78,35,78,78S1007.8,628.7,964.8,628.7z"/>
</g>
<g>
	<path fill="#FFFFFF" d="M964.4,550.8"/>
</g>
</svg>
