<?xml version="1.0" encoding="utf-8"?>
<!-- Generator: Adobe Illustrator 18.1.1, SVG Export Plug-In . SVG Version: 6.00 Build 0)  -->
<svg version="1.1" baseProfile="tiny" id="Layer_1" xmlns="http://www.w3.org/2000/svg" xmlns:xlink="http://www.w3.org/1999/xlink"
	 x="0px" y="0px" viewBox="0 0 1502.6 102" xml:space="preserve">
<path fill="#FFFFFF" d="M141,42.4c4.8,0,7.9,2.7,7.9,6.4c0,2.4-1.3,4.4-3.5,5.6c2.8,1,4.6,3.3,4.6,6.2c0,3.9-3.4,7-8.4,7h-12V42.4
	H141z M139.8,52.7c2.3,0,3.6-1.4,3.6-3c0-1.7-1.3-3-3.6-3h-4.6v6H139.8z M135.2,63.4h5.4c2.5,0,3.9-1.5,3.9-3.4
	c0-1.8-1.4-3.3-3.9-3.3h-5.4V63.4z"/>
<path fill="#FFFFFF" d="M356.8,67.6h-6l-2-5.3h-10.1l-2,5.3h-5.8l10.2-25.2h5.5L356.8,67.6z M340.1,58h7l-3.5-9.3L340.1,58z"/>
<path fill="#FFFFFF" d="M545.3,42.4c8.1,0,13.9,5.4,13.9,12.5c0,7.2-5.9,12.7-14,12.7h-8.8V42.4H545.3z M541.8,62.8h3.6
	c4.8,0,8.3-3.3,8.3-7.8c0-4.5-3.5-7.8-8.3-7.8h-3.6V62.8z"/>
<path fill="#FFFFFF" d="M745.7,50.6v17h-5.4V42.4h5.7L757.7,59V42.5h5.4v25.1h-5.4L745.7,50.6z"/>
<path fill="#FFFFFF" d="M946.2,67.6V42.4h18.5v4.8h-13v5.2H965v4.5h-13.3v6h13.4v4.8H946.2z"/>
<path fill="#FFFFFF" d="M1141.5,42.4h6l5.3,16.8l4.9-16.8h3.9l4.9,16.8l5.3-16.8h5.8l-8.5,25.2h-4.8l-4.8-15.9l-4.8,15.9h-4.8
	L1141.5,42.4z"/>
<path fill="#FFFFFF" d="M1372.9,60.4c0,4.2-3.6,7.6-9.1,7.6c-6.3,0-9.6-3.8-9.6-3.8l3.2-3.5c0,0,2.8,2.8,6.7,2.8
	c1.9,0,3.2-1.1,3.2-2.5c0-1.6-1.2-2.8-5.7-4.6c-3.5-1.4-6-3.6-6-7.2c0-4.1,3.5-7.2,8.7-7.2c5.5,0,8.5,3.2,8.5,3.2l-3.2,3.5
	c0,0-2.1-2.3-5.2-2.3c-2.2,0-3.2,1.2-3.2,2.3c0,1.5,1,2.4,4.5,3.7C1369.5,54,1372.9,56.3,1372.9,60.4z"/>
</svg>
