<?xml version="1.0" encoding="utf-8"?>
<!-- Generator: Adobe Illustrator 19.1.0, SVG Export Plug-In . SVG Version: 6.00 Build 0)  -->
<svg version="1.1" id="Layer_1" xmlns="http://www.w3.org/2000/svg" xmlns:xlink="http://www.w3.org/1999/xlink" x="0px" y="0px"
	 viewBox="0 0 650 160" style="enable-background:new 0 0 650 160;" xml:space="preserve">
<style type="text/css">
	.st0{fill:#FFFFFF;}
	.st1{opacity:0.25;}
</style>
<g class="st1">
	<path class="st0" d="M272.2,37.1h5.7c3.4,0,5.2,0.6,6.7,2.3c1.3,1.5,2.1,3.6,2.1,6c0,2.5-0.8,4.8-2.2,6.3c-1.5,1.6-3.3,2.2-6.5,2.2
		h-5.8V37.1z M278.5,50.6c1.7,0,2.7-0.5,3.5-1.6c0.6-0.9,0.8-2.1,0.8-3.6c0-1.4-0.3-2.5-0.8-3.5c-0.7-1.2-1.7-1.7-3.2-1.7H276v10.4
		H278.5z"/>
	<path class="st0" d="M352.1,40.3h-8.7v3.3h7.6v3h-7.6v4.1h8.9v3.2h-12.7V37.1h12.5V40.3z"/>
	<path class="st0" d="M414.4,42.3V42c0-1.4-1.1-2.2-3-2.2c-1.8,0-2.9,0.7-2.9,1.7c0,0.7,0.5,1.2,1.5,1.4l3.4,0.8
		c1.9,0.5,2.9,0.9,3.7,1.7c0.9,0.8,1.3,1.9,1.3,3.2c0,3.5-2.7,5.6-7,5.6c-4.5,0-7.2-2.2-7.2-5.9h3.8c0.1,1.9,1.2,2.8,3.5,2.8
		c1.9,0,3.1-0.7,3.1-1.9c0-0.8-0.6-1.4-1.8-1.7l-3-0.8c-1.8-0.4-2.9-0.9-3.7-1.6c-0.9-0.7-1.3-1.9-1.3-3.3c0-3.3,2.5-5.2,6.8-5.2
		c2.7,0,4.6,0.8,5.7,2.4c0.6,0.8,0.8,1.7,1,3.3H414.4z"/>
	<path class="st0" d="M475.2,53.9h-3.8V37.1h3.8V53.9z"/>
	<path class="st0" d="M543.7,44.6v9.3h-2.3l-0.5-2.1c-1.2,1.8-2.6,2.5-5,2.5c-4.8,0-7.7-3.3-7.7-8.7c0-5.4,3.2-8.9,8.2-8.9
		c3.7,0,6.5,2.1,7.2,5.5l-3.7,0.2c-0.4-1.6-1.7-2.5-3.6-2.5c-2.7,0-4.4,2.1-4.4,5.4c0,3.6,1.6,5.8,4.4,5.8c2.1,0,3.8-1.3,4.1-3.5
		h-4.1v-3.1H543.7z"/>
	<path class="st0" d="M607.1,53.9l-4.8-8.6l-1.7-3.3c0.1,0.9,0.1,1.5,0.1,2c0,0.9,0,1.9,0,2.9v6.9h-3.5V37.1h3.9l4.6,8.4
		c0.7,1.3,1.1,2.1,1.7,3.4c-0.1-0.7-0.1-1.1-0.1-1.6l0-1.3v-1.2v-7.7h3.5v16.8H607.1z"/>
	<path class="st0" d="M78.7,121.5h-3.8v-16.8h6.6c2.3,0,3.5,0.3,4.6,1.3c1.2,1,1.8,2.6,1.8,4.4c0,1.5-0.5,2.9-1.4,3.9
		c-1,1.1-2.3,1.5-4.2,1.5h-3.6V121.5z M81.7,112.6c1.5,0,2.4-0.9,2.4-2.3c0-1.5-0.9-2.3-2.4-2.3h-3v4.6H81.7z"/>
	<path class="st0" d="M156.4,113.2c0,5.1-3.4,8.6-8.3,8.6c-5,0-8.3-3.5-8.3-8.8c0-2.7,0.9-5.1,2.6-6.6c1.5-1.4,3.5-2.1,5.7-2.1
		C153.2,104.3,156.4,107.8,156.4,113.2z M143.7,113.1c0,3.5,1.6,5.6,4.4,5.6c2.7,0,4.4-2.1,4.4-5.5c0-3.6-1.6-5.6-4.4-5.6
		C145.4,107.5,143.7,109.6,143.7,113.1z"/>
	<path class="st0" d="M213.1,121.5h-3.7v-16.8h7.3c2.2,0,3.4,0.3,4.4,1c1,0.8,1.6,2,1.6,3.5c0,2-0.9,3.4-2.8,4.1
		c1.7,0.5,2.2,1.4,2.4,3.6l0.1,2.4c0.1,1.1,0.2,1.5,0.7,2.2h-3.7c-0.5-0.4-0.6-0.6-0.6-1.5l-0.2-2.3c-0.2-2.1-1.1-3-3-3h-2.5V121.5z
		 M216.9,111.8c1.4,0,2.1-0.7,2.1-1.9c0-1.2-0.8-1.9-2.1-1.9h-3.7v3.9H216.9z"/>
	<path class="st0" d="M283.4,121.5h-3.8v-13.6h-5.1v-3.2h14v3.2h-5.1V121.5z"/>
	<path class="st0" d="M353,107.9h-8.6v3.8h7.5v3.1h-7.5v6.7h-3.8v-16.8H353V107.9z"/>
	<path class="st0" d="M421,113.2c0,5.1-3.4,8.6-8.3,8.6c-5,0-8.3-3.5-8.3-8.8c0-2.7,0.9-5.1,2.6-6.6c1.5-1.4,3.5-2.1,5.7-2.1
		C417.7,104.3,421,107.8,421,113.2z M408.3,113.1c0,3.5,1.6,5.6,4.4,5.6c2.7,0,4.4-2.1,4.4-5.5c0-3.6-1.6-5.6-4.4-5.6
		C409.9,107.5,408.3,109.6,408.3,113.1z"/>
	<path class="st0" d="M477.8,118.3h8.2v3.2h-12v-16.8h3.8V118.3z"/>
	<path class="st0" d="M541.9,121.5h-3.8v-16.8h3.8V121.5z"/>
	<path class="st0" d="M611.5,113.2c0,5.1-3.4,8.6-8.3,8.6c-5,0-8.3-3.5-8.3-8.8c0-2.7,0.9-5.1,2.6-6.6c1.5-1.4,3.5-2.1,5.7-2.1
		C608.2,104.3,611.5,107.8,611.5,113.2z M598.8,113.1c0,3.5,1.6,5.6,4.4,5.6c2.7,0,4.4-2.1,4.4-5.5c0-3.6-1.6-5.6-4.4-5.6
		C600.4,107.5,598.8,109.6,598.8,113.1z"/>
</g>
</svg>
