<?xml version="1.0" encoding="utf-8"?>
<!-- Generator: Adobe Illustrator 19.1.0, SVG Export Plug-In . SVG Version: 6.00 Build 0)  -->
<svg version="1.1" id="Layer_1" xmlns="http://www.w3.org/2000/svg" xmlns:xlink="http://www.w3.org/1999/xlink" x="0px" y="0px"
	 viewBox="0 0 650 160" style="enable-background:new 0 0 650 160;" xml:space="preserve">
<style type="text/css">
	.st0{fill:#FFFFFF;}
	.st1{opacity:0.25;}
</style>
<g>
	<path class="st0" d="M56.4,35.6v12.8c0,1.9-0.5,3-1.6,4c-1.1,0.9-2.5,1.4-4.3,1.4c-3.5,0-5.8-1.9-5.8-4.8v-2.4h3.8v1.8
		c0,1.3,0.7,2,1.9,2s1.9-0.7,1.9-2V35.6H56.4z"/>
	<path class="st0" d="M116.2,49.8l-1.1,3.6h-4.3l6.2-17.8h5l5.6,17.8h-4.5l-1-3.6H116.2z M119.4,39.6l-2.2,6.9h4L119.4,39.6z"/>
	<path class="st0" d="M198.2,53.4h-4.8l-5.4-8l-1.7,1.7v6.4h-3.9V35.6h3.9v6.5l6-6.5h5.2l-6.9,7L198.2,53.4z"/>
	<path class="st0" d="M268.6,44.7c0,5.4-3.6,9.1-8.8,9.1c-5.3,0-8.8-3.7-8.8-9.3c0-2.9,1-5.4,2.7-7c1.6-1.5,3.7-2.3,6-2.3
		C265.2,35.2,268.6,38.9,268.6,44.7z M255.2,44.5c0,3.7,1.7,5.9,4.6,5.9c2.8,0,4.6-2.2,4.6-5.8c0-3.8-1.7-6-4.6-6
		C256.9,38.6,255.2,40.8,255.2,44.5z"/>
	<path class="st0" d="M324.6,35.6h7.2c2.2,0,3.5,0.2,4.7,0.9c1.3,0.7,2,2.1,2,3.6c0,1.7-0.8,2.9-2.5,3.7c2,1,2.9,2.3,2.9,4.3
		c0,1.7-0.7,3.1-1.8,4c-1.1,0.9-2.4,1.2-4.9,1.2h-7.6V35.6z M332.3,42.5c1.4,0,2.2-0.6,2.2-1.8c0-1.1-0.7-1.7-2.2-1.7h-3.8v3.5
		H332.3z M332.2,50c1.7,0,2.6-0.7,2.6-2.2c0-1.4-0.9-2.2-2.6-2.2h-3.8V50H332.2z"/>
	<path class="st0" d="M55,112.8c-0.4-1.7-1.7-2.7-3.6-2.7c-2.9,0-4.6,2.2-4.6,5.9c0,3.7,1.7,5.9,4.5,5.9c2,0,3.3-1,3.8-3.1h4.2
		c-0.5,4-3.5,6.5-7.9,6.5c-5.2,0-8.6-3.6-8.6-9.3c0-5.7,3.3-9.3,8.6-9.3c4.3,0,7.2,2.3,7.7,6.1H55z"/>
	<path class="st0" d="M116.9,117.2v7.7h-4v-17.8h4v6.7h6.5v-6.7h4v17.8h-4v-7.7H116.9z"/>
	<path class="st0" d="M186.5,124.8h-3.9v-17.8h7.7c2.3,0,3.6,0.3,4.6,1.1c1.1,0.8,1.7,2.1,1.7,3.7c0,2.2-1,3.5-3,4.3
		c1.8,0.6,2.4,1.5,2.5,3.8l0.1,2.5c0.1,1.2,0.2,1.6,0.7,2.3h-3.9c-0.5-0.4-0.6-0.6-0.7-1.5l-0.2-2.4c-0.2-2.2-1.1-3.1-3.2-3.1h-2.7
		V124.8z M190.5,114.6c1.5,0,2.3-0.7,2.3-2c0-1.3-0.8-2-2.3-2h-3.9v4.1H190.5z"/>
	<path class="st0" d="M252.1,122.1c-1.2-1.5-1.9-3.7-1.9-6.1c0-5.5,3.5-9.2,8.8-9.2c2.1,0,4,0.6,5.5,1.8l1.3,1.3
		c1.3,1.5,1.9,3.7,1.9,6.2c0,5.5-3.5,9.2-8.8,9.2c-2.2,0-4.1-0.6-5.7-1.9L252.1,122.1z M262.1,111.2c-0.8-0.8-1.8-1.2-3-1.2
		c-2.9,0-4.6,2.2-4.6,5.9c0,1.2,0.2,2.3,0.5,3.1L262.1,111.2z M255.9,120.6c0.9,0.8,1.9,1.3,3.1,1.3c2.9,0,4.6-2.2,4.6-5.9
		c0-1.3-0.2-2.2-0.5-3.2L255.9,120.6z"/>
	<path class="st0" d="M329.1,124.8h-4v-17.8h4V124.8z"/>
	<path class="st0" d="M394.9,112.6v-0.3c0-1.5-1.2-2.3-3.2-2.3c-1.9,0-3,0.7-3,1.8c0,0.7,0.5,1.3,1.6,1.5l3.6,0.8
		c2,0.5,3.1,1,3.9,1.8c0.9,0.8,1.4,2,1.4,3.4c0,3.7-2.8,5.9-7.4,5.9c-4.8,0-7.6-2.3-7.6-6.3h4c0.1,2,1.2,2.9,3.6,2.9
		c2,0,3.3-0.7,3.3-2c0-0.9-0.6-1.5-1.9-1.8l-3.2-0.8c-1.9-0.5-3.1-1-3.9-1.7c-0.9-0.7-1.4-2-1.4-3.5c0-3.4,2.6-5.5,7.1-5.5
		c2.9,0,4.9,0.9,6,2.5c0.6,0.9,0.9,1.8,1,3.4H394.9z"/>
</g>
</svg>
