<?xml version="1.0" encoding="utf-8"?>
<!-- Generator: Adobe Illustrator 19.1.0, SVG Export Plug-In . SVG Version: 6.00 Build 0)  -->
<svg version="1.1" id="Layer_1" xmlns="http://www.w3.org/2000/svg" xmlns:xlink="http://www.w3.org/1999/xlink" x="0px" y="0px"
	 viewBox="0 0 500 162" style="enable-background:new 0 0 500 162;" xml:space="preserve">
<style type="text/css">
	.st0{fill:#FFFFFF;}
</style>
<g>
	<path class="st0" d="M84.4,36.6v12.8c0,1.9-0.5,3-1.6,4c-1.1,0.9-2.5,1.4-4.3,1.4c-3.5,0-5.8-1.9-5.8-4.8v-2.4h3.8v1.8
		c0,1.3,0.7,2,1.9,2s1.9-0.7,1.9-2V36.6H84.4z"/>
	<path class="st0" d="M144.2,50.8l-1.1,3.6h-4.3l6.2-17.8h5l5.6,17.8H151l-1-3.6H144.2z M147.3,40.6l-2.2,6.9h4L147.3,40.6z"/>
	<path class="st0" d="M226.2,54.4h-4.8l-5.4-8l-1.7,1.7v6.4h-3.9V36.6h3.9v6.5l6-6.5h5.2l-6.9,7L226.2,54.4z"/>
	<path class="st0" d="M296.6,45.7c0,5.4-3.6,9.1-8.8,9.1c-5.3,0-8.8-3.7-8.8-9.3c0-2.9,1-5.4,2.7-7c1.6-1.5,3.7-2.3,6-2.3
		C293.1,36.2,296.6,39.9,296.6,45.7z M283.1,45.5c0,3.7,1.7,5.9,4.6,5.9c2.8,0,4.6-2.2,4.6-5.8c0-3.8-1.7-6-4.6-6
		C284.9,39.6,283.1,41.8,283.1,45.5z"/>
	<path class="st0" d="M352.5,36.6h7.2c2.2,0,3.5,0.2,4.7,0.9c1.3,0.7,2,2.1,2,3.6c0,1.7-0.8,2.9-2.5,3.7c2,1,2.9,2.3,2.9,4.3
		c0,1.7-0.7,3.1-1.8,4c-1.1,0.9-2.4,1.2-4.9,1.2h-7.6V36.6z M360.2,43.5c1.4,0,2.2-0.6,2.2-1.8c0-1.1-0.7-1.7-2.2-1.7h-3.8v3.5
		H360.2z M360.2,51c1.7,0,2.6-0.7,2.6-2.2c0-1.4-0.9-2.2-2.6-2.2h-3.8V51H360.2z"/>
	<path class="st0" d="M82.9,113.8c-0.4-1.7-1.7-2.7-3.6-2.7c-2.9,0-4.6,2.2-4.6,5.9c0,3.7,1.7,5.9,4.5,5.9c2,0,3.3-1,3.8-3.1h4.2
		c-0.5,4-3.5,6.5-7.9,6.5c-5.2,0-8.6-3.6-8.6-9.3c0-5.7,3.3-9.3,8.6-9.3c4.3,0,7.2,2.3,7.7,6.1H82.9z"/>
	<path class="st0" d="M144.9,118.2v7.7h-4v-17.8h4v6.7h6.5v-6.7h4v17.8h-4v-7.7H144.9z"/>
	<path class="st0" d="M214.5,125.8h-3.9v-17.8h7.7c2.3,0,3.6,0.3,4.6,1.1c1.1,0.8,1.7,2.1,1.7,3.7c0,2.2-1,3.5-3,4.3
		c1.8,0.6,2.4,1.5,2.5,3.8l0.1,2.5c0.1,1.2,0.2,1.6,0.7,2.3h-3.9c-0.5-0.4-0.6-0.6-0.7-1.5l-0.2-2.4c-0.2-2.2-1.1-3.1-3.2-3.1h-2.7
		V125.8z M218.4,115.6c1.5,0,2.3-0.7,2.3-2c0-1.3-0.8-2-2.3-2h-3.9v4.1H218.4z"/>
	<path class="st0" d="M280.1,123.1c-1.2-1.5-1.9-3.7-1.9-6.1c0-5.5,3.5-9.2,8.8-9.2c2.1,0,4,0.6,5.5,1.8l1.3,1.3
		c1.3,1.5,1.9,3.7,1.9,6.2c0,5.5-3.5,9.2-8.8,9.2c-2.2,0-4.1-0.6-5.7-1.9L280.1,123.1z M290,112.2c-0.8-0.8-1.8-1.2-3-1.2
		c-2.9,0-4.6,2.2-4.6,5.9c0,1.2,0.2,2.3,0.5,3.1L290,112.2z M283.8,121.6c0.9,0.8,1.9,1.3,3.1,1.3c2.9,0,4.6-2.2,4.6-5.9
		c0-1.3-0.2-2.2-0.5-3.2L283.8,121.6z"/>
	<path class="st0" d="M357,125.8h-4v-17.8h4V125.8z"/>
	<path class="st0" d="M422.8,113.6v-0.3c0-1.5-1.2-2.3-3.2-2.3c-1.9,0-3,0.7-3,1.8c0,0.7,0.5,1.3,1.6,1.5l3.6,0.8
		c2,0.5,3.1,1,3.9,1.8c0.9,0.8,1.4,2,1.4,3.4c0,3.7-2.8,5.9-7.4,5.9c-4.8,0-7.6-2.3-7.6-6.3h4c0.1,2,1.2,2.9,3.6,2.9
		c2,0,3.3-0.7,3.3-2c0-0.9-0.6-1.5-1.9-1.8l-3.2-0.8c-1.9-0.5-3.1-1-3.9-1.7c-0.9-0.7-1.4-2-1.4-3.5c0-3.4,2.6-5.5,7.1-5.5
		c2.9,0,4.9,0.9,6,2.5c0.6,0.9,0.9,1.8,1,3.4H422.8z"/>
</g>
<path class="st0" d="M-804.3,115.3"/>
</svg>
