<?xml version="1.0" encoding="utf-8"?>
<!-- Generator: Adobe Illustrator 19.1.0, SVG Export Plug-In . SVG Version: 6.00 Build 0)  -->
<svg version="1.1" id="Layer_1" xmlns="http://www.w3.org/2000/svg" xmlns:xlink="http://www.w3.org/1999/xlink" x="0px" y="0px"
	 viewBox="-208 490 1502.6 102" style="enable-background:new -208 490 1502.6 102;" xml:space="preserve">
<g>
	<path d="M167.8,526.4h6.5v18.3c0,6.9-4.6,11.3-10.9,11.3c-4.2,0-6-1.3-6-1.3l1.7-5.6c0,0,1.4,0.8,3.9,0.8c3,0,5-2.1,5-5.7v-17.8
		H167.8z"/>
	<path d="M269,552.1c0,2.1-1.7,3.8-3.8,3.8c-2.1,0-3.8-1.7-3.8-3.8c0-2,1.7-3.8,3.8-3.8C267.3,548.3,269,550.1,269,552.1z"/>
	<path d="M370.5,526c7.7,0,11.1,4.7,11.1,4.7l-4.6,4c0,0-2.1-3-6.6-3c-5.1,0-8.9,3.9-8.9,9.1c0,5.2,3.8,9.1,8.9,9.1
		c4.7,0,7-3.3,7-3.3l4.5,4c0,0-3.6,5.2-11.6,5.2c-8.7,0-15.2-6.4-15.2-14.8C355.1,532.8,361.8,526,370.5,526z"/>
	<path d="M488.2,543.2h-12.7v12.2h-6.4v-29.1h6.4v11.1h12.7v-11.1h6.3v29.1h-6.3V543.2z"/>
	<path d="M584.3,526.4h13c6.2,0,10.4,3.9,10.4,9.4c0,4.2-2.4,7.4-6,8.8l7.4,10.9h-7.4l-6.5-10h-4.5v10h-6.4V526.4z M590.6,531.8v8.8
		h5.8c3.1,0,5-1.8,5-4.4c0-2.6-1.8-4.4-5-4.4H590.6z"/>
	<path d="M721.1,530.4c2.6,2.6,4.2,6.3,4.2,10.4c0,8.4-6.6,15.1-15.3,15.1c-3.2,0-6-0.8-8.5-2.4l-2.5-2c-2.6-2.6-4.2-6.3-4.2-10.3
		c0-8.4,6.6-15.1,15.3-15.1c3.2,0,6,0.9,8.4,2.5L721.1,530.4z M714.8,533c-1.4-0.8-3-1.3-4.7-1.3c-5.2,0-9,4-9,9.2
		c0,2.3,0.7,4.3,1.9,5.8L714.8,533z M705.3,548.9c1.3,0.8,3,1.3,4.7,1.3c5.2,0,9.1-4,9.1-9.2c0-2.3-0.7-4.3-1.9-5.8L705.3,548.9z"/>
	<path d="M813.8,526.4h6.5v29.1h-6.5V526.4z"/>
	<path d="M929.2,547.2c0,4.9-4.2,8.7-10.6,8.7c-7.2,0-11-4.4-11-4.4l3.8-4c0,0,3.2,3.2,7.7,3.2c2.3,0,3.7-1.2,3.7-2.8
		c0-1.9-1.4-3.2-6.6-5.2c-4-1.5-6.9-4.2-6.9-8.3c0-4.7,4-8.3,10.1-8.3c6.3,0,9.8,3.7,9.8,3.7l-3.8,4c0,0-2.4-2.6-6-2.6
		c-2.5,0-3.7,1.3-3.7,2.6c0,1.7,1.2,2.7,5.2,4.3C925.3,539.8,929.2,542.5,929.2,547.2z"/>
</g>
</svg>
