<?xml version="1.0" encoding="utf-8"?>
<!-- Generator: Adobe Illustrator 19.1.0, SVG Export Plug-In . SVG Version: 6.00 Build 0)  -->
<svg version="1.1" id="Layer_1" xmlns="http://www.w3.org/2000/svg" xmlns:xlink="http://www.w3.org/1999/xlink" x="0px" y="0px"
	 viewBox="-208 490 1502.6 102" style="enable-background:new -208 490 1502.6 102;" xml:space="preserve">
<g>
	<path d="M227.1,530.7h5.5v15.4c0,5.8-3.9,9.5-9.2,9.5c-3.5,0-5.1-1.1-5.1-1.1l1.4-4.7c0,0,1.2,0.7,3.3,0.7c2.5,0,4.2-1.8,4.2-4.8
		V530.7z"/>
	<path d="M312.4,552.4c0,1.8-1.4,3.2-3.2,3.2c-1.8,0-3.2-1.4-3.2-3.2c0-1.7,1.4-3.2,3.2-3.2C311,549.2,312.4,550.7,312.4,552.4z"/>
	<path d="M398,530.4c6.5,0,9.4,4,9.4,4l-3.9,3.4c0,0-1.8-2.5-5.6-2.5c-4.3,0-7.5,3.3-7.5,7.7c0,4.4,3.2,7.7,7.5,7.7
		c4,0,5.9-2.8,5.9-2.8l3.8,3.4c0,0-3,4.4-9.8,4.4c-7.3,0-12.8-5.4-12.8-12.5S390.7,530.4,398,530.4z"/>
	<path d="M497.3,544.9h-10.7v10.3h-5.4v-24.5h5.4v9.4h10.7v-9.4h5.3v24.5h-5.3V544.9z"/>
	<path d="M578.3,530.7h11c5.2,0,8.8,3.3,8.8,7.9c0,3.5-2,6.2-5.1,7.4l6.2,9.2h-6.2l-5.5-8.4h-3.8v8.4h-5.4V530.7z M583.6,535.3v7.4
		h4.9c2.6,0,4.2-1.5,4.2-3.7c0-2.2-1.5-3.7-4.2-3.7H583.6z"/>
	<path d="M693.7,534.1c2.2,2.2,3.5,5.3,3.5,8.8c0,7.1-5.6,12.7-12.9,12.7c-2.7,0-5.1-0.7-7.2-2l-2.1-1.7c-2.2-2.2-3.5-5.3-3.5-8.7
		c0-7.1,5.6-12.7,12.9-12.7c2.7,0,5.1,0.8,7.1,2.1L693.7,534.1z M688.4,536.3c-1.2-0.7-2.5-1.1-4-1.1c-4.4,0-7.6,3.4-7.6,7.8
		c0,1.9,0.6,3.6,1.6,4.9L688.4,536.3z M680.4,549.7c1.1,0.7,2.5,1.1,4,1.1c4.4,0,7.7-3.4,7.7-7.8c0-1.9-0.6-3.6-1.6-4.9L680.4,549.7
		z"/>
	<path d="M771.9,530.7h5.5v24.5h-5.5V530.7z"/>
	<path d="M869.2,548.3c0,4.1-3.5,7.3-8.9,7.3c-6.1,0-9.3-3.7-9.3-3.7l3.2-3.4c0,0,2.7,2.7,6.5,2.7c1.9,0,3.1-1,3.1-2.4
		c0-1.6-1.2-2.7-5.6-4.4c-3.4-1.3-5.8-3.5-5.8-7c0-4,3.4-7,8.5-7c5.3,0,8.3,3.1,8.3,3.1l-3.2,3.4c0,0-2-2.2-5.1-2.2
		c-2.1,0-3.1,1.1-3.1,2.2c0,1.4,1,2.3,4.4,3.6C865.9,542,869.2,544.3,869.2,548.3z"/>
</g>
</svg>
