<?xml version="1.0" encoding="utf-8"?>
<!-- Generator: Adobe Illustrator 19.1.0, SVG Export Plug-In . SVG Version: 6.00 Build 0)  -->
<svg version="1.1" id="Layer_1" xmlns="http://www.w3.org/2000/svg" xmlns:xlink="http://www.w3.org/1999/xlink" x="0px" y="0px"
	 viewBox="-208 490 1502.6 102" style="enable-background:new -208 490 1502.6 102;" xml:space="preserve">
<style type="text/css">
	.st0{fill:#333333;}
	.st1{fill:#FFFFFF;}
</style>
<g>
	<rect x="159.1" y="501" class="st0" width="768.4" height="80"/>
	<g>
		<path class="st1" d="M230.4,528.8h5.4v15.2c0,5.8-3.8,9.4-9.1,9.4c-3.5,0-5-1.1-5-1.1l1.4-4.7c0,0,1.2,0.7,3.2,0.7
			c2.5,0,4.2-1.8,4.2-4.8v-14.8H230.4z"/>
		<path class="st1" d="M314.7,550.2c0,1.7-1.4,3.2-3.2,3.2c-1.8,0-3.2-1.4-3.2-3.2c0-1.7,1.4-3.2,3.2-3.2S314.7,548.6,314.7,550.2z"
			/>
		<path class="st1" d="M399.3,528.5c6.4,0,9.2,3.9,9.2,3.9l-3.8,3.3c0,0-1.8-2.5-5.5-2.5c-4.2,0-7.4,3.3-7.4,7.6
			c0,4.3,3.2,7.6,7.4,7.6c3.9,0,5.8-2.8,5.8-2.8l3.8,3.3c0,0-3,4.3-9.7,4.3c-7.2,0-12.7-5.3-12.7-12.3
			C386.5,534.2,392,528.5,399.3,528.5z"/>
		<path class="st1" d="M497.4,542.8h-10.6V553h-5.3v-24.2h5.3v9.2h10.6v-9.2h5.2V553h-5.2V542.8z"/>
		<path class="st1" d="M577.5,528.8h10.8c5.2,0,8.7,3.2,8.7,7.8c0,3.5-2,6.2-5,7.3l6.2,9.1H592l-5.4-8.3h-3.8v8.3h-5.3V528.8z
			 M582.7,533.3v7.3h4.8c2.6,0,4.2-1.5,4.2-3.7c0-2.2-1.5-3.7-4.2-3.7L582.7,533.3L582.7,533.3z"/>
		<path class="st1" d="M691.5,532.2c2.2,2.2,3.5,5.2,3.5,8.7c0,7-5.5,12.6-12.7,12.6c-2.7,0-5-0.7-7.1-2l-2.1-1.7
			c-2.2-2.2-3.5-5.2-3.5-8.6c0-7,5.5-12.6,12.8-12.6c2.7,0,5,0.8,7,2.1L691.5,532.2z M686.2,534.3c-1.2-0.7-2.5-1.1-3.9-1.1
			c-4.3,0-7.5,3.3-7.5,7.7c0,1.9,0.6,3.6,1.6,4.8L686.2,534.3z M678.3,547.6c1.1,0.7,2.5,1.1,3.9,1.1c4.3,0,7.6-3.3,7.6-7.7
			c0-1.9-0.6-3.6-1.6-4.8L678.3,547.6z"/>
		<path class="st1" d="M768.7,528.8h5.4v24.2h-5.4V528.8z"/>
		<path class="st1" d="M864.9,546.2c0,4.1-3.5,7.2-8.8,7.2c-6,0-9.2-3.7-9.2-3.7l3.2-3.3c0,0,2.7,2.7,6.4,2.7c1.9,0,3.1-1,3.1-2.3
			c0-1.6-1.2-2.7-5.5-4.3c-3.3-1.2-5.8-3.5-5.8-6.9c0-3.9,3.3-6.9,8.4-6.9c5.2,0,8.2,3.1,8.2,3.1l-3.2,3.3c0,0-2-2.2-5-2.2
			c-2.1,0-3.1,1.1-3.1,2.2c0,1.4,1,2.2,4.3,3.6C861.6,540,864.9,542.2,864.9,546.2z"/>
	</g>
</g>
</svg>
