<?xml version="1.0" encoding="utf-8"?>
<!-- Generator: Adobe Illustrator 18.1.1, SVG Export Plug-In . SVG Version: 6.00 Build 0)  -->
<svg version="1.0" id="Layer_1" xmlns="http://www.w3.org/2000/svg" xmlns:xlink="http://www.w3.org/1999/xlink" x="0px" y="0px"
	 viewBox="0 0 500 500" enable-background="new 0 0 500 500" xml:space="preserve">
<g>
	<path fill="#FFFFFF" d="M346.8,170.8c1.5-2.1,2.4-4.7,2.4-7.6c0-7.2-5.8-13-13-13c-2.9,0-5.6,1-7.8,2.6
		c-20.7-16.5-46.7-25.6-73.3-25.6c-65.1,0-118,52.9-118,118c0,31.3,12.2,59.7,32.1,80.8l-22.6,22.6c-2-1.2-4.3-2-6.9-2
		c-7.2,0-13,5.8-13,13s5.8,13,13,13c7.1,0,13-5.8,13-13c0-2.5-0.7-4.8-1.9-6.8l22.6-22.6c21.2,20.4,50,32.9,81.7,32.9
		c65.1,0,118-53,118.1-118C373.3,218.1,363.9,191.8,346.8,170.8z M336.3,156.3c3.9,0,7,3.1,7,7c0,3.9-3.1,7-7,7s-7-3.1-7-7
		C329.3,159.3,332.3,156.3,336.3,156.3z M282.8,212.4c-6.8-5.7-15.3-9.4-24.7-10v-28.9c17.3,0.7,33.1,7.6,45.1,18.5L282.8,212.4z
		 M252.1,202.4c-9.8,0.7-18.7,4.7-25.6,10.8l-48.8-48.8c19.5-18.6,45.6-30.3,74.5-31.1V202.4z M255.1,208.3c20.4,0,37,16.6,37,37
		s-16.6,37-37,37s-37-16.6-37-37S234.7,208.3,255.1,208.3z M226.5,277.3c7.6,6.8,17.7,11,28.6,11c10.6,0,20.3-3.9,27.8-10.3
		l20.6,20.6c-12.8,11.7-29.8,18.8-48.5,18.8c-18.4,0-35.8-6.9-49.2-19.4L226.5,277.3z M307.8,294.3l-20.5-20.5
		c6.8-7.6,10.9-17.6,10.9-28.5c0-11-4.2-21.1-11-28.7l20.4-20.4c12.1,12.9,19.5,30.2,19.5,49.2C327,264.2,319.7,281.5,307.8,294.3z
		 M307.5,187.7c-13.2-12-30.4-19.5-49.4-20.3v-34.1c24.1,0.6,47.6,9.1,66.5,24.1c-0.9,1.8-1.4,3.7-1.4,5.8c0,2.5,0.7,4.8,1.9,6.8
		L307.5,187.7z M143.1,245.3c0-29.6,11.5-56.5,30.3-76.6l48.9,48.9c-6.3,7.5-10.2,17.2-10.2,27.7c0,10.6,3.8,20.2,10.2,27.7
		l-48.9,48.9C154.7,301.8,143.1,274.9,143.1,245.3z M139.8,366.8c-3.9,0-7-3.1-7-7s3.1-7,7-7c3.8,0,7,3.1,7,7
		S143.7,366.8,139.8,366.8z M255.1,357.3c-30,0-57.3-11.9-77.5-31.1l24-24c14.6,13.6,33.5,21.1,53.5,21.1c43,0,77.9-34.9,77.9-77.9
		c0-20.7-8.1-39.5-21.3-53.4l17.6-17.6c2,1.2,4.3,1.9,6.8,1.9c2.2,0,4.2-0.5,6-1.4c16,19.9,24.9,44.7,24.9,70.4
		C367.2,307,316.9,357.3,255.1,357.3z"/>
	<path fill="#FFFFFF" d="M245.9,259.3c2.3-2.3,5.7-5.7,9.2-9.2c4.8,4.8,9,9,9.5,9.4l3.8-4.6c-0.5-0.5-4.3-4.3-9-9
		c4.8-4.8,9-9,9.4-9.5l-4.6-3.8c-0.5,0.5-4.3,4.3-9,9c-3.1-3.2-6.4-6.4-9.2-9.2l-4.3,4.2c2.3,2.3,5.7,5.7,9.2,9.2
		c-3.2,3.1-6.4,6.4-9.2,9.2L245.9,259.3z"/>
</g>
</svg>
