<?xml version="1.0" encoding="utf-8"?>
<!-- Generator: Adobe Illustrator 18.1.1, SVG Export Plug-In . SVG Version: 6.00 Build 0)  -->
<svg version="1.1" id="Layer_1" xmlns="http://www.w3.org/2000/svg" xmlns:xlink="http://www.w3.org/1999/xlink" x="0px" y="0px"
	 viewBox="75 75 350 350" enable-background="new 75 75 350 350" xml:space="preserve">
<path fill="#333333" d="M259.6,194.2v-20.5h30v-19.2h-30V125h-19.2v29.5h-30v19.2h30v20.5c-45.5,4.8-81,43.3-81,90.2
	c0,50,40.7,90.7,90.7,90.7s90.7-40.7,90.7-90.7C340.6,237.7,305.1,199,259.6,194.2z M249.9,355.8c-39.3,0-71.5-32-71.5-71.5
	c0-39.3,32-71.5,71.5-71.5c39.3,0,71.5,32,71.5,71.5C321.4,323.7,289.3,355.8,249.9,355.8z"/>
</svg>
