<?xml version="1.0" encoding="utf-8"?>
<!-- Generator: Adobe Illustrator 18.1.1, SVG Export Plug-In . SVG Version: 6.00 Build 0)  -->
<svg version="1.1" id="Layer_1" xmlns="http://www.w3.org/2000/svg" xmlns:xlink="http://www.w3.org/1999/xlink" x="0px" y="0px"
	 viewBox="0 0 400 100" enable-background="new 0 0 400 100" xml:space="preserve">
<g>
	<g>
		<g>
			<rect y="36" fill="#FFFFFF" width="1" height="30"/>
		</g>
	</g>
	<g>
		<g>
			<rect x="10" y="47" fill="#FFFFFF" width="1" height="19"/>
		</g>
	</g>
	<g>
		<g>
			<rect x="20" y="47" fill="#FFFFFF" width="1" height="19"/>
		</g>
	</g>
	<g>
		<g>
			<rect x="30" y="47" fill="#FFFFFF" width="1" height="19"/>
		</g>
	</g>
	<g>
		<g>
			<rect x="40" y="47" fill="#FFFFFF" width="1" height="19"/>
		</g>
	</g>
	<g>
		<g>
			<rect x="50" y="36" fill="#FFFFFF" width="1" height="30"/>
		</g>
	</g>
	<g>
		<g>
			<rect x="60" y="28" fill="#FFFFFF" width="1" height="30"/>
		</g>
	</g>
	<g>
		<g>
			<rect x="70" y="36" fill="#FFFFFF" width="1" height="41"/>
		</g>
	</g>
	<g>
		<g>
			<rect x="80" y="47" fill="#FFFFFF" width="1" height="30"/>
		</g>
	</g>
	<g>
		<g>
			<rect x="90" y="47" fill="#FFFFFF" width="1" height="30"/>
		</g>
	</g>
	<g>
		<g>
			<rect x="100" y="47" fill="#FFFFFF" width="1" height="30"/>
		</g>
	</g>
	<g>
		<g>
			<rect x="110" y="36" fill="#FFFFFF" width="1" height="41"/>
		</g>
	</g>
	<g>
		<g>
			<rect x="120" y="28" fill="#FFFFFF" width="1" height="41"/>
		</g>
	</g>
	<g>
		<g>
			<rect x="130" y="36" fill="#FFFFFF" width="1" height="41"/>
		</g>
	</g>
	<g>
		<g>
			<rect x="140" y="36" fill="#FFFFFF" width="1" height="30"/>
		</g>
	</g>
	<g>
		<g>
			<rect x="150" y="36" fill="#FFFFFF" width="1" height="30"/>
		</g>
	</g>
	<g>
		<g>
			<rect x="160" y="36" fill="#FFFFFF" width="1" height="30"/>
		</g>
	</g>
	<g>
		<g>
			<rect x="170" y="36" fill="#FFFFFF" width="1" height="30"/>
		</g>
	</g>
	<g>
		<g>
			<rect x="180" y="36" fill="#FFFFFF" width="1" height="30"/>
		</g>
	</g>
	<g>
		<g>
			<rect x="190" y="33" fill="#FFFFFF" width="1" height="33"/>
		</g>
	</g>
	<g>
		<g>
			<rect x="200" y="25" fill="#FFFFFF" width="1" height="41"/>
		</g>
	</g>
	<g>
		<g>
			<rect x="210" y="41" fill="#FFFFFF" width="1" height="33"/>
		</g>
	</g>
	<g>
		<g>
			<rect x="220" y="36" fill="#FFFFFF" width="1" height="30"/>
		</g>
	</g>
	<g>
		<g>
			<rect x="230" y="33" fill="#FFFFFF" width="1" height="22"/>
		</g>
	</g>
	<g>
		<g>
			<rect x="240" y="33" fill="#FFFFFF" width="1" height="22"/>
		</g>
	</g>
	<g>
		<g>
			<rect x="250" y="36" fill="#FFFFFF" width="1" height="19"/>
		</g>
	</g>
	<g>
		<g>
			<rect x="260" y="25" fill="#FFFFFF" width="1" height="30"/>
		</g>
	</g>
	<g>
		<g>
			<rect x="270" y="25" fill="#FFFFFF" width="1" height="41"/>
		</g>
	</g>
	<g>
		<g>
			<rect x="280" y="33" fill="#FFFFFF" width="1" height="52"/>
		</g>
	</g>
	<g>
		<g>
			<rect x="290" y="25" fill="#FFFFFF" width="1" height="52"/>
		</g>
	</g>
	<g>
		<g>
			<rect x="300" y="25" fill="#FFFFFF" width="1" height="52"/>
		</g>
	</g>
	<g>
		<g>
			<rect x="310" y="25" fill="#FFFFFF" width="1" height="52"/>
		</g>
	</g>
	<g>
		<g>
			<rect x="320" y="25" fill="#FFFFFF" width="1" height="52"/>
		</g>
	</g>
	<g>
		<g>
			<rect x="330" y="36" fill="#FFFFFF" width="1" height="30"/>
		</g>
	</g>
	<g>
		<g>
			<rect x="340" y="42" fill="#FFFFFF" width="1" height="30"/>
		</g>
	</g>
	<g>
		<g>
			<rect x="350" y="47" fill="#FFFFFF" width="1" height="19"/>
		</g>
	</g>
	<g>
		<g>
			<rect x="360" y="47" fill="#FFFFFF" width="1" height="19"/>
		</g>
	</g>
	<g>
		<g>
			<rect x="370" y="47" fill="#FFFFFF" width="1" height="19"/>
		</g>
	</g>
	<g>
		<g>
			<rect x="380" y="30" fill="#FFFFFF" width="1" height="30"/>
		</g>
	</g>
	<g>
		<g>
			<rect x="390" y="36" fill="#FFFFFF" width="1" height="30"/>
		</g>
	</g>
</g>
<g>
	<path fill="#FFFFFF" d="M85.6,36.5c-2,0-3.6-1.6-3.6-3.6c0-2,1.6-3.6,3.6-3.6c2,0,3.6,1.6,3.6,3.6C89.2,34.9,87.6,36.5,85.6,36.5z
		 M85.6,30.3c-1.4,0-2.6,1.2-2.6,2.6s1.2,2.6,2.6,2.6s2.6-1.2,2.6-2.6S87,30.3,85.6,30.3z"/>
</g>
<g>
	<path fill="#FFFFFF" d="M245.6,71.5c-2,0-3.6-1.6-3.6-3.6c0-2,1.6-3.6,3.6-3.6c2,0,3.6,1.6,3.6,3.6
		C249.2,69.9,247.6,71.5,245.6,71.5z M245.6,65.3c-1.4,0-2.6,1.2-2.6,2.6c0,1.4,1.2,2.6,2.6,2.6c1.4,0,2.6-1.2,2.6-2.6
		C248.2,66.5,247,65.3,245.6,65.3z"/>
</g>
<g>
	<path fill="#FFFFFF" d="M360.6,40.5c-2,0-3.6-1.6-3.6-3.6c0-2,1.6-3.6,3.6-3.6c2,0,3.6,1.6,3.6,3.6
		C364.2,38.9,362.6,40.5,360.6,40.5z M360.6,34.3c-1.4,0-2.6,1.2-2.6,2.6s1.2,2.6,2.6,2.6c1.4,0,2.6-1.2,2.6-2.6
		S362,34.3,360.6,34.3z"/>
</g>
</svg>
