<?xml version="1.0" encoding="utf-8"?>
<!-- Generator: Adobe Illustrator 19.1.0, SVG Export Plug-In . SVG Version: 6.00 Build 0)  -->
<svg version="1.1" id="Layer_1" xmlns="http://www.w3.org/2000/svg" xmlns:xlink="http://www.w3.org/1999/xlink" x="0px" y="0px"
	 viewBox="0 0 50 50" style="enable-background:new 0 0 50 50;" xml:space="preserve">
<style type="text/css">
	.st0{fill:#7F7F7F;}
</style>
<path class="st0" d="M29.3,24.9c3.2-3.2,6.5-6.4,9.3-9.2l-4.2-4.3c-2.3,2.3-5.8,5.7-9.3,9.2c-3.1-3.2-6.4-6.4-9.1-9.2l-4.3,4.2
	c2.3,2.3,5.7,5.7,9.1,9.2c-4.8,4.8-8.9,8.9-9.3,9.4l4.6,3.8c0.5-0.5,4.2-4.3,8.9-9c4.8,4.9,9,9,9.5,9.4l3.8-4.6
	C37.8,33.4,34,29.6,29.3,24.9z"/>
</svg>
