<svg id="Layer_1" data-name="Layer 1" xmlns="http://www.w3.org/2000/svg" viewBox="0 0 30 30"><defs><style>.cls-1{fill:#4c4c4c;}</style></defs><title>linkedin</title><path class="cls-1" d="M9,27H4a1,1,0,0,1-1-1V12a1,1,0,0,1,1-1H9a1,1,0,0,1,1,1V26A1,1,0,0,1,9,27ZM5,25H8V13H5Z"/><path class="cls-1" d="M6.5,10A3.5,3.5,0,1,1,10,6.49,3.5,3.5,0,0,1,6.5,10Zm0-5A1.5,1.5,0,1,0,8,6.49,1.5,1.5,0,0,0,6.5,5Z"/><path class="cls-1" d="M26,27H21.06a1,1,0,0,1-1-1V20c0-1.82-.19-2-1-2S18,18.13,18,20v6a1,1,0,0,1-1,1H12a1,1,0,0,1-1-1V12a1,1,0,0,1,1-1h5a1,1,0,0,1,.94.66A5.53,5.53,0,0,1,20.75,11c5.51,0,6.25,3.52,6.25,7V26A1,1,0,0,1,26,27Zm-3.94-2H25V17.94c0-3.76-1-5-4.25-5a3,3,0,0,0-2.88,1.52A1,1,0,0,1,16,14V13H13V25h3V20c0-1.41,0-4,3.08-4s3,2.7,3,4Z"/></svg>