<svg id="Layer_1" data-name="Layer 1" xmlns="http://www.w3.org/2000/svg" viewBox="0 0 30 30"><defs><style>.cls-1{fill:#4c4c4c;}</style></defs><title>pinterest</title><path class="cls-1" d="M15,27A12,12,0,1,1,27,15,12,12,0,0,1,15,27ZM15,5A10,10,0,1,0,25,15,10,10,0,0,0,15,5Z"/><path class="cls-1" d="M13,23a1,1,0,0,1-.29,0A1,1,0,0,1,12,21.71L13.4,17.2a6.22,6.22,0,0,1-.28-4.42A2.57,2.57,0,0,1,16.22,11,1,1,0,0,1,17,12.28L15.55,17a1.7,1.7,0,0,0,.56.51,2,2,0,0,0,2-.1C19.29,16.66,20,15,20,13c0-2.43-2-4-5-4-2.36,0-4,1.85-4,4.5a7.08,7.08,0,0,0,.42,2.63,1,1,0,1,1-1.88.69A9,9,0,0,1,9,13.5C9,9.73,11.52,7,15,7c4.12,0,7,2.47,7,6,0,2.74-1.07,5-2.86,6.09a4,4,0,0,1-4,.15l-.25-.15-1,3.2A1,1,0,0,1,13,23Z"/></svg>