<svg id="Layer_1" data-name="Layer 1" xmlns="http://www.w3.org/2000/svg" viewBox="0 0 30 30"><defs><style>.cls-1{fill:#4c4c4c;}</style></defs><title>twitter</title><path class="cls-1" d="M18.81,7a4.11,4.11,0,0,1,3,1.27,8.31,8.31,0,0,0,2.6-1,4,4,0,0,1-1.8,2.23,8.31,8.31,0,0,0,2.35-.64,8.29,8.29,0,0,1-2,2.09c0,.17,0,.35,0,.52C22.91,16.83,19.53,23,12,23a12.56,12.56,0,0,1-7-1.84,8.05,8.05,0,0,0,1,.06,8.28,8.28,0,0,0,5.08-1.73,4.08,4.08,0,0,1-3.82-2.8,4.13,4.13,0,0,0,1.85-.07A3.89,3.89,0,0,1,6,12.68v-.05a4.13,4.13,0,0,0,1.85.5A4,4,0,0,1,6,9.78a4,4,0,0,1,.55-2A11.31,11.31,0,0,0,14.82,12a4,4,0,0,1-.11-.92,4.06,4.06,0,0,1,4.09-4m6.13,1.89h0M18.81,5a6.09,6.09,0,0,0-5.93,4.63A9.38,9.38,0,0,1,8.1,6.48a2,2,0,0,0-1.54-.72H6.4a2,2,0,0,0-1.56,1,6,6,0,0,0-.56,4.83A2,2,0,0,0,4,12.63v.05a6.12,6.12,0,0,0,1.28,3.79,2,2,0,0,0,.09.83,6,6,0,0,0,1,1.9H6a6,6,0,0,1-.73,0H5a2,2,0,0,0-1.07,3.69A14.65,14.65,0,0,0,12,25a12.14,12.14,0,0,0,9.83-4.49,14.47,14.47,0,0,0,3.07-8.57,10.28,10.28,0,0,0,1.64-1.85,2,2,0,0,0-.17-2.59,2,2,0,0,0-3-1.92,6.2,6.2,0,0,1-1.1.51A6.16,6.16,0,0,0,18.81,5Z"/></svg>