<?xml version="1.0" encoding="utf-8"?>
<!-- Generator: Adobe Illustrator 19.0.0, SVG Export Plug-In . SVG Version: 6.00 Build 0)  -->
<svg version="1.1" id="Layer_5" xmlns="http://www.w3.org/2000/svg" xmlns:xlink="http://www.w3.org/1999/xlink" x="0px" y="0px"
	 viewBox="0 0 500 500" enable-background="new 0 0 500 500" xml:space="preserve">
<path opacity="0.75" fill="#333333" d="M306.3,302.7l-24.2-24.2c6.8-7.6,11-17.7,11-28.7c0-23.7-19.3-43-43-43c-11,0-21,4.2-28.7,11
	l-52.3-52.3l-4.2,4.2l52.4,52.4c-6.3,7.5-10.2,17.2-10.2,27.7c0,23.7,19.3,43,43,43c10.5,0,20.2-3.8,27.7-10.2l24.2,24.2
	L306.3,302.7z M213.1,249.9c0-20.4,16.6-37,37-37c20.4,0,37,16.6,37,37c0,20.4-16.6,37-37,37C229.7,286.9,213.1,270.3,213.1,249.9z"
	/>
</svg>
