<?xml version="1.0" encoding="utf-8"?>
<!-- Generator: Adobe Illustrator 19.0.0, SVG Export Plug-In . SVG Version: 6.00 Build 0)  -->
<svg version="1.1" id="Layer_5" xmlns="http://www.w3.org/2000/svg" xmlns:xlink="http://www.w3.org/1999/xlink" x="0px" y="0px"
	 viewBox="0 0 500 500" enable-background="new 0 0 500 500" xml:space="preserve">
<path fill="#333333" d="M342.2,175.5c1.5-2.1,2.5-4.7,2.5-7.6c0-7.2-5.8-13-13-13c-2.9,0-5.6,1-7.8,2.6
	c-20.7-16.5-46.7-25.6-73.3-25.6c-65.1,0-118,52.9-118,118c0,31.2,12.2,59.7,32,80.8L142,353.4c-2-1.2-4.3-2-6.9-2
	c-7.2,0-13,5.8-13,13s5.8,13,13,13c7.2,0,13-5.8,13-13c0-2.5-0.7-4.8-1.9-6.8l22.7-22.7c21.2,20.4,50,32.9,81.7,32.9
	c65.1,0,118-53,118.1-118C368.7,222.8,359.3,196.5,342.2,175.5z M331.7,160.9c3.8,0,7,3.1,7,7c0,3.9-3.1,7-7,7c-3.9,0-7-3.1-7-7
	C324.7,164,327.8,160.9,331.7,160.9z M135.1,371.4c-3.9,0-7-3.1-7-7c0-3.9,3.1-7,7-7c3.9,0,7,3.1,7,7
	C142.1,368.3,139,371.4,135.1,371.4z M250.6,361.9c-30.1,0-57.4-11.9-77.5-31.2l52.2-52.2l-4.2-4.2l-52.2,52.2
	c-18.8-20-30.3-47-30.3-76.5c0-61.8,50.2-112,112-112c25.2,0,49.8,8.5,69.5,24.2c-0.9,1.8-1.4,3.7-1.4,5.8c0,2.5,0.7,4.8,1.9,6.8
	l-45.5,45.5l4.2,4.2l45.4-45.4c2,1.2,4.3,2,6.9,2c2.1,0,4.2-0.5,5.9-1.5c16,19.9,25,44.7,25,70.5
	C362.6,311.7,312.4,361.9,250.6,361.9z"/>
</svg>
